<svg width="22" height="26" viewBox="0 0 22 26" fill="none" xmlns="http://www.w3.org/2000/svg">
<path d="M1 9.19238H2.56971L3.24244 11.721M3.24244 11.721L5.48488 20.1496H17.1456L19.388 11.721H3.24244Z" stroke="#383838" stroke-width="1.5" stroke-linecap="round" stroke-linejoin="round"/>
<path d="M5.48511 24.3635C6.22819 24.3635 6.83057 23.7975 6.83057 23.0993C6.83057 22.401 6.22819 21.835 5.48511 21.835C4.74203 21.835 4.13965 22.401 4.13965 23.0993C4.13965 23.7975 4.74203 24.3635 5.48511 24.3635Z" stroke="#383838" stroke-width="1.5" stroke-linecap="round" stroke-linejoin="round"/>
<path d="M17.1453 24.3635C17.8883 24.3635 18.4907 23.7975 18.4907 23.0993C18.4907 22.401 17.8883 21.835 17.1453 21.835C16.4022 21.835 15.7998 22.401 15.7998 23.0993C15.7998 23.7975 16.4022 24.3635 17.1453 24.3635Z" stroke="#383838" stroke-width="1.5" stroke-linecap="round" stroke-linejoin="round"/>
<path d="M6.49318 10.01C6.6428 10.1593 6.82264 10.2472 6.98214 10.3253L6.98993 10.3291L6.99081 10.3295C7.33885 10.497 7.74641 10.6133 8.2388 10.7131C9.22714 10.9157 10.5384 11.0393 11.9789 11.0393C13.4193 11.0393 14.731 10.9157 15.7187 10.7131C16.2118 10.6133 16.6189 10.497 16.9669 10.3295L16.9678 10.3291L16.9755 10.3253C17.1351 10.2472 17.3149 10.1593 17.465 10.0102L17.4654 10.0098C17.646 9.82898 17.7504 9.59123 17.7551 9.34087L17.7551 9.34087V9.33805V6.79922L19.9018 5.78965L19.9021 5.78953L20.8684 5.3372L21.1586 5.20134L20.8684 5.06549L19.9028 4.61348L19.9018 4.61304L12.3087 0.994568L12.3073 0.993862L12.0449 0.865296L11.9789 0.832967L6.59901 9.90374M6.49318 10.01C6.49314 10.01 6.49311 10.01 6.49307 10.0099L6.59901 9.90374M6.49318 10.01C6.49322 10.0101 6.49326 10.0101 6.4933 10.0102L6.59901 9.90374M6.49318 10.01C6.33955 9.85739 6.20258 9.61474 6.20258 9.33805V6.79892M6.59901 9.90374C6.46679 9.7724 6.35258 9.56608 6.35258 9.33805V6.704M6.20258 6.79892L6.28835 6.83956L6.35258 6.704M6.20258 6.79892V6.704H6.35258M6.20258 6.79892L6.35258 6.704M20.8048 5.20134L20.7412 5.3372L20.6279 5.28415L20.8048 5.20134ZM20.8048 5.20134L20.7412 5.06549L20.6279 5.11853L20.8048 5.20134ZM3.15234 5.20134L3.33036 5.11806L3.21498 5.06504L3.15234 5.20134ZM3.15234 5.20134L3.2159 5.33721L3.33092 5.2834L3.15234 5.20134ZM15.4126 6.15657L15.4122 6.15647C14.5703 5.98328 13.3454 5.86843 11.9789 5.86843C10.6124 5.86843 9.38806 5.98328 8.54561 6.15698L8.54509 6.15709C8.12217 6.24272 7.79466 6.34092 7.63184 6.41923C7.63149 6.4194 7.63114 6.41957 7.63079 6.41974L15.4126 6.15657ZM15.4126 6.15657C15.8351 6.24211 16.1623 6.3403 16.3261 6.41831L15.4126 6.15657ZM16.3299 8.11518V6.42027V8.11518ZM16.3299 8.11518C16.129 8.05507 15.925 8.00426 15.7186 7.96295C14.7303 7.76038 13.4192 7.63678 11.9789 7.63678C10.5385 7.63678 9.22675 7.76039 8.23898 7.96298M16.3299 8.11518L8.23898 7.96298M8.23898 7.96298C8.01535 8.00827 7.81422 8.05932 7.62783 8.11508V6.4213L8.23898 7.96298ZM5.22732 6.33687V6.17088L5.37732 6.24195V6.40793L5.22732 6.33687ZM5.37732 9.91412C5.35152 9.89795 5.32508 9.88262 5.29806 9.86817L5.22732 10.0004H5.37732V9.91412ZM4.10206 5.63776H3.95206V5.73391L4.03943 5.77406L4.10206 5.63776ZM3.95206 9.91412V10.0004H4.10206L4.03132 9.86817C4.0043 9.88262 3.97786 9.89795 3.95206 9.91412ZM4.05497 4.61348L4.1195 4.74889L4.05594 4.61302L4.05497 4.61348ZM11.649 0.994568L11.715 1.12927L11.6505 0.993862L11.649 0.994568ZM15.4123 9.25903L15.414 9.25936C15.5267 9.28111 15.6382 9.30742 15.7482 9.3382C15.6382 9.36905 15.5266 9.39544 15.4139 9.41726L15.4123 9.41759C14.5681 9.5908 13.337 9.70514 11.9789 9.70514C10.6208 9.70514 9.38969 9.59029 8.54547 9.41707L8.54374 9.41673C8.43104 9.39499 8.31954 9.36868 8.20956 9.3379C8.31956 9.30704 8.43109 9.28065 8.54383 9.25883L8.54383 9.25884L8.54538 9.25852C9.38967 9.0858 10.6208 8.97096 11.9789 8.97096C13.3369 8.97096 14.568 9.08581 15.4123 9.25903ZM6.59167 5.49268L5.9651 5.1999L11.9789 2.32966L17.9926 5.1999L17.3661 5.49268C17.2451 5.39345 17.1104 5.30967 16.9657 5.24348C16.6199 5.07612 16.2102 4.96006 15.7187 4.86044C14.7332 4.65785 13.426 4.53425 11.9789 4.53425C10.5317 4.53425 9.22502 4.65786 8.23891 4.86046C7.74689 4.96009 7.33781 5.07614 6.992 5.24348C6.84729 5.30967 6.71264 5.39345 6.59167 5.49268Z" fill="#383838" stroke="white" stroke-width="0.3"/>
</svg>
