<svg width="23" height="22" viewBox="0 0 23 22" fill="none" xmlns="http://www.w3.org/2000/svg">
<path d="M9.94633 11L4.77892 10.9997M21.3637 10.4141C21.4736 10.4676 21.5663 10.551 21.6311 10.6547C21.6959 10.7584 21.7302 10.8782 21.7301 11.0005C21.73 11.1227 21.6955 11.2425 21.6306 11.3461C21.5657 11.4497 21.4729 11.5329 21.3629 11.5862L1.68076 21.0639C1.56307 21.1205 1.43108 21.1405 1.30191 21.1212C1.17274 21.1019 1.05235 21.0442 0.95635 20.9556C0.860355 20.867 0.793186 20.7517 0.763558 20.6245C0.73393 20.4973 0.743212 20.3641 0.790196 20.2422L4.25444 11.2331C4.3122 11.0828 4.31219 10.9165 4.25442 10.7663L0.79003 1.75583C0.743446 1.63411 0.73443 1.50122 0.764146 1.37433C0.793862 1.24744 0.860944 1.13238 0.956727 1.04402C1.05251 0.955656 1.17259 0.898046 1.30146 0.878633C1.43033 0.85922 1.56206 0.878897 1.67964 0.935119L21.3637 10.4141Z" stroke="#383838" stroke-width="1.5" stroke-linecap="round" stroke-linejoin="round"/>
</svg>
