<svg width="23" height="24" viewBox="0 0 23 24" fill="none" xmlns="http://www.w3.org/2000/svg">
<path d="M10.7778 23H2.22222C1.89807 23 1.58719 22.8712 1.35798 22.642C1.12877 22.4128 1 22.1019 1 21.7778V2.22222C1 1.89807 1.12877 1.58719 1.35798 1.35798C1.58719 1.12877 1.89807 1 2.22222 1H19.3333C19.6575 1 19.9684 1.12877 20.1976 1.35798C20.4268 1.58719 20.5556 1.89807 20.5556 2.22222V9.25" stroke="#383838" stroke-width="2" stroke-linecap="round" stroke-linejoin="round"/>
<path d="M19.1109 13.8331C20.5837 13.8331 21.7778 14.9819 21.7778 16.3997C21.7778 18.2453 19.9994 19.8219 19.1109 20.6775C18.5181 21.2477 17.7781 21.8184 16.8889 22.3886C16.0003 21.8184 15.2591 21.2477 14.6669 20.6775C13.7777 19.8219 12 18.2453 12 16.3997C12 14.9819 13.1941 13.8331 14.6669 13.8331C15.5939 13.8331 16.411 14.2889 16.8889 14.9807C17.1388 14.624 17.4715 14.3332 17.8586 14.1333C18.2456 13.9334 18.6753 13.8304 19.1109 13.8331Z" stroke="#383838" stroke-width="2" stroke-linejoin="round"/>
<path d="M5.88867 5.88867H15.6664" stroke="#383838" stroke-width="2" stroke-linecap="round"/>
</svg>
