<svg width="28" height="24" viewBox="0 0 28 24" fill="none" xmlns="http://www.w3.org/2000/svg">
<path d="M20.0571 1C15.9996 1 13.9996 4.99999 13.9996 4.99999C13.9996 4.99999 11.9996 1 7.94214 1C4.64465 1 2.03341 3.75874 1.99966 7.0506C1.93091 13.8837 7.42027 18.7431 13.4371 22.8268C13.603 22.9397 13.799 23 13.9996 23C14.2002 23 14.3962 22.9397 14.5621 22.8268C20.5783 18.7431 26.0677 13.8837 25.9996 7.0506C25.9658 3.75874 23.3546 1 20.0571 1Z" stroke="#383838" stroke-width="1.5" stroke-linecap="round" stroke-linejoin="round"/>
<path d="M1 12H7.99998L11 6L14 16L16.9999 9.99999L18.9999 14H26.9999" stroke="#383838" stroke-width="1.5" stroke-linecap="round" stroke-linejoin="round"/>
</svg>
