<svg width="13" height="18" viewBox="0 0 13 18" fill="none" xmlns="http://www.w3.org/2000/svg">
<path d="M12.5788 1.51763C12.6898 1.43176 12.7765 1.33074 12.8341 1.22035C12.8917 1.10996 12.919 0.992358 12.9144 0.874255C12.9098 0.756153 12.8735 0.639865 12.8075 0.532031C12.7414 0.424197 12.647 0.326929 12.5296 0.24578C12.4122 0.164631 12.2741 0.101191 12.1231 0.059082C11.9722 0.0169728 11.8114 -0.00298116 11.6499 0.000359791C11.4884 0.00370074 11.3294 0.030271 11.1819 0.0785535C11.0345 0.126836 10.9015 0.195885 10.7905 0.281759L0.336189 8.37701C0.120294 8.54401 0 8.76512 0 8.99495C0 9.22477 0.120294 9.44588 0.336189 9.61288L10.7905 17.709C10.9007 17.7968 11.0337 17.8676 11.1817 17.9175C11.3297 17.9674 11.4897 17.9952 11.6526 17.9994C11.8154 18.0037 11.9778 17.9842 12.1302 17.9421C12.2827 17.9001 12.4222 17.8363 12.5407 17.7545C12.6591 17.6727 12.7542 17.5745 12.8203 17.4656C12.8865 17.3567 12.9223 17.2392 12.9259 17.1201C12.9294 17.001 12.9006 16.8825 12.841 16.7716C12.7814 16.6607 12.6923 16.5596 12.5788 16.4741L2.92148 8.99495L12.5788 1.51763Z" fill="#5D5D5D"/>
</svg>
