<svg width="22" height="24" viewBox="0 0 22 24" fill="none" xmlns="http://www.w3.org/2000/svg">
<path d="M9.63469 4.83558e-08C11.974 0.000152033 14.2333 0.848258 15.9913 2.38612C17.7492 3.92399 18.8858 6.04659 19.1889 8.358L21.8984 12.6048C22.0766 12.8844 22.0405 13.3008 21.6275 13.4784L19.2684 14.484V18C19.2684 18.6365 19.0147 19.247 18.563 19.6971C18.1113 20.1471 17.4987 20.4 16.86 20.4H14.4528L14.4516 24H3.61362V19.5672C3.61362 18.1512 3.08858 16.8108 2.11437 15.6012C0.979641 14.1893 0.268283 12.4868 0.062258 10.6896C-0.143767 8.89244 0.163926 7.07383 0.949883 5.44334C1.73584 3.81284 2.96808 2.43679 4.50462 1.47374C6.04117 0.510685 7.81949 -0.000181471 9.63469 4.83558e-08ZM9.63469 2.4C8.27342 2.39994 6.93983 2.7831 5.78754 3.50532C4.63525 4.22754 3.71114 5.25945 3.12167 6.48217C2.53219 7.7049 2.30134 9.06869 2.4557 10.4164C2.61006 11.7642 3.14336 13.0411 3.99415 14.1C5.31156 15.7368 6.02205 17.6004 6.02205 19.5672V21.6H12.0431L12.0455 18H16.86V12.9024L18.7265 12.1056L16.8684 9.1956L16.7998 8.6652C16.5718 6.93229 15.7192 5.34114 14.4009 4.1884C13.0826 3.03566 11.3886 2.40003 9.63469 2.4ZM8.99646 6.9156L9.63469 7.5516L10.2729 6.9156C10.6703 6.53299 11.2026 6.32121 11.7551 6.32588C12.3077 6.33056 12.8363 6.55131 13.2271 6.94058C13.6179 7.32986 13.8396 7.85652 13.8445 8.40714C13.8495 8.95775 13.6372 9.48826 13.2534 9.8844L9.63469 13.4916L6.01603 9.8844C5.81479 9.69064 5.65429 9.45889 5.5439 9.20265C5.43351 8.94642 5.37543 8.67085 5.37305 8.39201C5.37068 8.11318 5.42406 7.83666 5.53007 7.5786C5.63608 7.32054 5.79261 7.0861 5.99052 6.88897C6.18842 6.69183 6.42375 6.53595 6.68276 6.43041C6.94177 6.32487 7.21928 6.2718 7.49909 6.27427C7.77891 6.27675 8.05542 6.33474 8.31251 6.44485C8.5696 6.55496 8.8021 6.71499 8.99646 6.9156Z" fill="#383838"/>
</svg>
