<svg width="14" height="18" viewBox="0 0 14 18" fill="none" xmlns="http://www.w3.org/2000/svg">
<path d="M1.27276 16.4824C1.1618 16.5682 1.07505 16.6693 1.01747 16.7796C0.959891 16.89 0.932606 17.0076 0.937174 17.1257C0.941743 17.2438 0.978074 17.3601 1.0441 17.468C1.11012 17.5758 1.20453 17.6731 1.32195 17.7542C1.43937 17.8354 1.5775 17.8988 1.72845 17.9409C1.8794 17.983 2.04021 18.003 2.2017 17.9996C2.36319 17.9963 2.5222 17.9697 2.66965 17.9214C2.8171 17.8732 2.9501 17.8041 3.06106 17.7182L13.5154 9.62299C13.7313 9.45599 13.8516 9.23488 13.8516 9.00505C13.8516 8.77523 13.7313 8.55412 13.5154 8.38712L3.06106 0.290968C2.95083 0.203213 2.81786 0.132353 2.66987 0.0825005C2.52187 0.0326462 2.36181 0.00479507 2.19898 0.000564575C2.03614 -0.00366592 1.87378 0.0158081 1.72132 0.0578556C1.56887 0.0999012 1.42935 0.163681 1.31089 0.245493C1.19242 0.327305 1.09736 0.425514 1.03123 0.53442C0.965107 0.643324 0.929227 0.760756 0.925679 0.879887C0.922132 0.99902 0.950986 1.11748 1.01057 1.22839C1.07015 1.33929 1.15927 1.44044 1.27276 1.52594L10.9301 9.00505L1.27276 16.4824Z" fill="#5D5D5D"/>
</svg>
