<svg width="25" height="24" viewBox="0 0 25 24" fill="none" xmlns="http://www.w3.org/2000/svg">
<path d="M24.3423 3.8874L12.804 0.0492474C12.6066 -0.0164158 12.3932 -0.0164158 12.1958 0.0492474L0.657446 3.8874C0.465988 3.95109 0.299465 4.07328 0.181469 4.23667C0.0634726 4.40006 -1.49545e-05 4.59636 2.64224e-09 4.79776V14.3931C2.64224e-09 14.6476 0.101304 14.8917 0.281626 15.0716C0.461948 15.2516 0.706517 15.3527 0.96153 15.3527C1.21654 15.3527 1.46111 15.2516 1.64143 15.0716C1.82176 14.8917 1.92306 14.6476 1.92306 14.3931V6.12911L5.96028 7.47127C4.88765 9.2006 4.54655 11.284 5.0119 13.2641C5.47724 15.2442 6.71099 16.9591 8.44223 18.0322C6.27879 18.879 4.40862 20.4106 3.04084 22.5048C2.9697 22.6103 2.92029 22.7289 2.89548 22.8536C2.87067 22.9783 2.87095 23.1068 2.8963 23.2314C2.92165 23.356 2.97157 23.4743 3.04316 23.5795C3.11475 23.6847 3.20658 23.7747 3.31332 23.8442C3.42005 23.9136 3.53955 23.9612 3.66488 23.9842C3.79021 24.0072 3.91887 24.0051 4.04337 23.978C4.16788 23.9509 4.28575 23.8994 4.39013 23.8265C4.49451 23.7535 4.58332 23.6606 4.6514 23.5531C6.46269 20.78 9.32324 19.1908 12.4999 19.1908C15.6765 19.1908 18.5371 20.78 20.3484 23.5531C20.4894 23.7623 20.7073 23.9077 20.9548 23.9578C21.2024 24.008 21.4598 23.9589 21.6714 23.8212C21.883 23.6834 22.0318 23.4681 22.0856 23.2218C22.1394 22.9755 22.0939 22.7179 21.9589 22.5048C20.5912 20.4106 18.7138 18.879 16.5575 18.0322C18.2871 16.9591 19.5197 15.2454 19.985 13.2667C20.4502 11.2881 20.1102 9.20609 19.0395 7.47726L24.3423 5.71411C24.5338 5.65046 24.7004 5.52828 24.8184 5.36489C24.9365 5.2015 25 5.00518 25 4.80375C25 4.60233 24.9365 4.40601 24.8184 4.24262C24.7004 4.07923 24.5338 3.95705 24.3423 3.89339V3.8874ZM18.2691 11.5145C18.2693 12.4247 18.0533 13.322 17.6388 14.1327C17.2243 14.9435 16.623 15.6446 15.8844 16.1786C15.1458 16.7125 14.2908 17.0641 13.3896 17.2045C12.4884 17.3449 11.5668 17.27 10.7002 16.9861C9.83364 16.7022 9.04688 16.2172 8.40448 15.5711C7.76208 14.925 7.28235 14.1361 7.00464 13.2691C6.72693 12.4021 6.65916 11.4818 6.80689 10.5836C6.95462 9.68547 7.31364 8.83505 7.8545 8.10216L12.1958 9.54147C12.3932 9.60713 12.6066 9.60713 12.804 9.54147L17.1453 8.10216C17.8757 9.09052 18.2696 10.2864 18.2691 11.5145ZM12.4999 7.62479L4.00237 4.79776L12.4999 1.97072L20.9974 4.79776L12.4999 7.62479Z" fill="#383838"/>
</svg>
