<svg width="19" height="24" viewBox="0 0 19 24" fill="none" xmlns="http://www.w3.org/2000/svg">
<path d="M5.32552 0.00841339C5.17903 0.0330239 5.0406 0.0930436 4.92203 0.183358C1.96494 2.14404 0 5.50986 0 9.34375C0 15.0862 4.39142 19.806 9.96014 20.2778V21.3823C8.10574 21.5973 6.76446 22.3715 6.76446 22.3715C6.60328 22.4699 6.47809 22.6185 6.40776 22.7949C6.33743 22.9713 6.32576 23.1661 6.3745 23.3498C6.42324 23.5335 6.52977 23.6963 6.67802 23.8136C6.82628 23.9308 7.00824 23.9963 7.1965 24H14.5662C14.7545 23.9963 14.9364 23.9308 15.0847 23.8136C15.2329 23.6963 15.3395 23.5335 15.3882 23.3498C15.4369 23.1661 15.4253 22.9713 15.3549 22.7949C15.2846 22.6185 15.1594 22.4699 14.9982 22.3715C14.9982 22.3715 13.657 21.5973 11.8026 21.3823V20.3066C13.602 20.1479 15.3337 19.5379 16.8407 18.5321C16.9576 18.4735 17.061 18.3905 17.1438 18.2885C17.2266 18.1865 17.287 18.0679 17.321 17.9406C17.355 17.8132 17.3618 17.6801 17.341 17.5499C17.3201 17.4197 17.2721 17.2954 17.2002 17.1854C17.1282 17.0753 17.0339 16.982 16.9235 16.9116C16.8131 16.8411 16.6892 16.7952 16.5599 16.7768C16.4306 16.7584 16.2989 16.768 16.1736 16.805C16.0482 16.8419 15.9321 16.9053 15.8329 16.9911C14.4118 17.9346 12.7539 18.4491 11.0536 18.4744C10.9398 18.4525 10.8229 18.4525 10.7091 18.4744C8.34124 18.4297 6.08538 17.4479 4.42696 15.7401C2.76854 14.0323 1.84012 11.7351 1.8415 9.34282C1.84242 6.14729 3.47481 3.35283 5.92984 1.72436C6.11018 1.61292 6.24708 1.44221 6.31758 1.24088C6.38809 1.03956 6.38789 0.819861 6.31703 0.618662C6.24618 0.417463 6.10897 0.247004 5.92843 0.135889C5.7479 0.0247742 5.53502 -0.0202353 5.32552 0.00841339ZM10.8813 0.968747C9.45526 0.966039 8.05423 1.34731 6.82249 2.07332C6.70366 2.12729 6.58943 2.20359 6.47704 2.27711C6.33225 2.36986 6.19707 2.47711 6.07355 2.59722C4.07912 4.09355 2.76271 6.47671 2.76271 9.1688C2.76271 10.7628 3.21595 12.2396 4.00082 13.5015C4.03085 13.565 4.06962 13.6239 4.11597 13.6764C5.57333 15.8883 8.06521 17.3698 10.8813 17.3698C12.4444 17.376 13.9751 16.9209 15.2857 16.0605C15.328 16.0335 15.3612 16.0028 15.4008 15.974C17.5611 14.4962 19 11.9902 19 9.1688C19.0028 7.67031 18.594 6.20041 17.819 4.92268C17.7804 4.8006 17.7112 4.69065 17.6182 4.6035C17.6099 4.59233 17.5961 4.58489 17.5887 4.57372C17.571 4.55347 17.5522 4.53421 17.5325 4.51603C16.0613 2.38877 13.6321 0.968747 10.8813 0.968747ZM10.8813 2.4809C11.4742 2.48036 12.0645 2.55857 12.6372 2.71354L11.6294 3.38168C11.2977 3.12112 10.9569 2.88476 10.6225 2.68376C10.5147 2.61955 10.4143 2.56744 10.3056 2.50975C10.497 2.49213 10.6891 2.48251 10.8813 2.4809ZM8.03112 3.32398C8.52581 3.31468 9.15316 3.50265 9.87354 3.93443C10.0108 4.01632 10.1665 4.12705 10.3056 4.22569L6.67786 6.58C6.64746 6.4125 6.60877 6.245 6.59219 6.0868C6.44756 4.73936 6.79117 3.86557 7.31166 3.52778C7.31903 3.52312 7.33376 3.5315 7.34021 3.52778C7.53183 3.40959 7.74647 3.32864 8.03112 3.32305V3.32398ZM14.2493 3.4403C14.2591 3.4405 14.269 3.4405 14.2788 3.4403C14.9481 3.83531 15.5426 4.34732 16.0346 4.95246L14.1922 6.1445C13.7417 5.508 13.2811 4.90965 12.7809 4.39971L14.2493 3.4403ZM11.4857 5.24279C12.0127 5.77266 12.4944 6.3467 12.9255 6.95873L8.05968 10.1282C7.68711 9.47809 7.3697 8.79729 7.11083 8.09308L11.4857 5.24279ZM5.12378 5.85416C5.13115 5.97979 5.13852 6.10448 5.15234 6.23197C5.19379 6.61629 5.28868 7.01736 5.38264 7.42401L4.34628 8.09308C4.46981 7.30556 4.73321 6.54706 5.12378 5.85416ZM16.8121 6.20312C17.1437 6.88429 17.3879 7.62129 17.4735 8.41319C17.4535 8.43135 17.4344 8.45062 17.4164 8.47089L15.948 9.43029C15.6993 8.76122 15.3815 8.07168 14.9982 7.39516L16.8121 6.20312ZM13.7316 8.2094C14.1051 8.85916 14.4228 9.54002 14.6813 10.2445L10.277 13.0948C9.74997 12.5649 9.26829 11.9909 8.83718 11.3789L13.7316 8.2094ZM5.81469 8.90732C6.0671 9.58011 6.4061 10.2631 6.79393 10.9424L4.95151 12.1345C4.60097 11.4337 4.37639 10.6756 4.28824 9.89557L5.81469 8.90825V8.90732ZM17.4164 10.2445C17.2929 11.0321 17.0295 11.7905 16.6389 12.4834C16.6316 12.3485 16.6251 12.2136 16.6104 12.0768C16.5698 11.7027 16.4998 11.3082 16.4086 10.9136L17.4164 10.2445ZM15.0839 11.7567C15.1134 11.9195 15.1539 12.0973 15.1705 12.2508C15.3151 13.5982 14.9715 14.4432 14.451 14.7819C13.9306 15.1197 13.0416 15.0946 11.8892 14.4032C11.7519 14.3213 11.5962 14.2106 11.4571 14.1119L15.0839 11.7567ZM7.57052 12.1931C8.00335 12.8128 8.48486 13.3963 9.01037 13.9379L7.48484 14.9271C6.81572 14.5314 6.221 14.0195 5.72809 13.4149L7.57052 12.1931ZM10.1619 14.9559C10.4834 15.2062 10.8159 15.4305 11.1402 15.6241C11.2673 15.7004 11.3862 15.7609 11.5142 15.8288C11.3038 15.8475 11.0926 15.8568 10.8813 15.8567C10.2885 15.8572 9.69819 15.7789 9.12552 15.6241L10.1619 14.9559Z" fill="#383838"/>
</svg>
